#!OML:ASF Y:\EmotionMaleHayes\Project 1\Capture day 1\Session 1\Male1.ASF
:FULLY-SPECIFIED
:DEGREES
907
root 44.7868 16.9504 -1.23673 943.151 103.523 951.883
lowerback 6.95819 2.85495 -13.6088
upperback 0.125421 2.70139 -2.80247
thorax -4.28084 1.62842 4.34603
lowerneck -12.2723 13.6672 16.5821
upperneck 18.4444 17.3875 -7.66524
head 10.0176 8.61333 -2.83299
rclavicle -1.15792e-014 3.3197e-014
rhumerus -43.8086 0.669664 -83.4029
rradius 33.9791
rwrist 0.913255
rhand -7.82456 -32.9104
rfingers 7.12502
rthumb 18.0776 -62.0903
lclavicle -1.15792e-014 3.3197e-014
lhumerus -27.4118 -19.3356 88.8558
lradius 39.8691
lwrist 0.334466
lhand -17.2962 -22.6244
lfingers 7.12502
lthumb 8.9495 7.16574
rfemur -4.67681 -3.86165 -0.854668
rtibia 53.9566
rfoot -10.8277 3.15644
rtoes 8.03553
lfemur 14.8158 8.66659 -30.9662
ltibia 1.42186
lfoot -9.422 5.21185
ltoes 10.8563
908
root 44.8205 16.9516 -1.23655 943.502 103.556 952.225
lowerback 6.85152 2.8273 -13.7223
upperback 0.162401 2.67898 -2.79729
thorax -4.18234 1.61302 4.42223
lowerneck -12.3317 13.6738 16.5522
upperneck 18.464 17.398 -7.6833
head 10.0354 8.61233 -2.82909
rclavicle -1.49089e-016 -1.66979e-014
rhumerus -43.85 0.735661 -83.4649
rradius 34.2754
rwrist 0.817711
rhand -7.56242 -33.1147
rfingers 7.12502
rthumb 18.3298 -62.2711
lclavicle -1.49089e-016 -1.66979e-014
lhumerus -27.4772 -19.3958 89.1528
lradius 39.9339
lwrist 0.20901
lhand -17.089 -22.5835
lfingers 7.12502
lthumb 9.14947 7.19801
rfemur -4.93571 -4.15267 -0.969636
rtibia 53.2948
rfoot -11.9665 3.22666
rtoes 6.34455
lfemur 14.8965 8.69336 -31.0816
ltibia 1.4924
lfoot -9.54941 5.1418
ltoes 10.7334
909
root 44.8592 16.9519 -1.23898 944.914 103.721 953.776
lowerback 6.78988 2.79137 -14.0721
upperback 0.287012 2.63138 -2.8837
thorax -4.01638 1.58336 4.5338
lowerneck -12.3844 13.7043 16.5082
upperneck 18.4011 17.42 -7.63724
head 10.0163 8.62061 -2.80139
rclavicle -9.7653e-015 4.03533e-014
rhumerus -43.8005 0.807642 -83.5548
rradius 34.4907
rwrist 0.656195
rhand -7.46747 -33.061
rfingers 7.12502
rthumb 18.4212 -62.2087
lclavicle -9.7653e-015 4.03533e-014
lhumerus -27.4758 -19.5909 89.4618
lradius 39.9209
lwrist 0.217432
lhand -17.0744 -22.7158
lfingers 7.12502
lthumb 9.16356 7.06507
rfemur -4.96247 -4.60437 -1.53991
rtibia 52.4928
rfoot -12.9497 3.07138
rtoes 2.17156
lfemur 15.1298 8.92349 -31.4846
ltibia 1.55949
lfoot -9.58826 4.89949
ltoes 10.4223
910
root 44.8904 16.9526 -1.23777 944.179 103.494 953.1
lowerback 6.91407 2.71487 -13.8343
upperback 0.245589 2.52028 -2.80688
thorax -4.10394 1.52987 4.49324
lowerneck -12.2271 13.777 16.6261
upperneck 18.4269 17.5239 -7.60526
head 10.019 8.68497 -2.79621
rclavicle 2.3556e-014 3.24019e-014
rhumerus -43.9524 1.0437 -83.7819
rradius 34.6962
rwrist 0.479689
rhand -7.45035 -33.0386
rfingers 7.12502
rthumb 18.4376 -62.1848
lclavicle 2.3556e-014 3.24019e-014
lhumerus -27.7779 -19.7241 89.737
lradius 39.9753
lwrist 0.28381
lhand -17.0027 -22.7294
lfingers 7.12502
lthumb 9.23278 7.04848
rfemur -4.99835 -4.48834 -1.21392
rtibia 51.1239
rfoot -13.3325 3.11245
rtoes 6.62011
lfemur 15.3881 8.82218 -31.1971
ltibia 1.52051
lfoot -9.7122 5.01397
ltoes 10.5228
911
root 44.9286 16.952 -1.23609 945.669 103.744 954.713
lowerback 6.76332 2.65912 -14.2759
upperback 0.417483 2.46186 -2.93622
thorax -3.83548 1.48873 4.61527
lowerneck -12.499 13.9397 16.8062
upperneck 18.5074 17.7013 -7.73641
head 10.1507 8.75303 -2.8117
rclavicle -4.47266e-016 -7.37491e-014
rhumerus -43.7036 1.1051 -83.9592
rradius 34.7294
rwrist 0.26468
rhand -7.45794 -33.1105
rfingers 7.12502
rthumb 18.4303 -62.2574
lclavicle -4.47266e-016 -7.37491e-014
lhumerus -27.7531 -20.0718 89.9565
lradius 40.0175
lwrist 0.543044
lhand -16.3395 -22.6654
lfingers 7.12502
lthumb 9.87262 7.08312
rfemur -4.98429 -4.80211 -1.81717
rtibia 50.1121
rfoot -14.1839 2.76829
rtoes 3.79302
lfemur 15.6698 8.82431 -31.7502
ltibia 1.42975
lfoot -9.86017 4.91539
ltoes 10.0827
912
root 44.9692 16.9564 -1.2245 945.569 103.657 954.498
lowerback 6.65984 2.63761 -14.2648
upperback 0.26502 2.43472 -2.90388
thorax -3.93735 1.48686 4.64616
lowerneck -12.4224 13.7496 16.3932
upperneck 18.6574 17.4593 -7.3357
head 10.0782 8.66138 -2.66911
rclavicle 2.16178e-015 4.85035e-014
rhumerus -43.945 1.06446 -84.078
rradius 34.7996
rwrist 0.0730128
rhand -7.56737 -33.0532
rfingers 7.12502
rthumb 18.3251 -62.21
lclavicle 2.16178e-015 4.85035e-014
lhumerus -28.2403 -20.5308 90.3973
lradius 40.0568
lwrist 0.826538
lhand -15.4095 -22.6641
lfingers 7.12502
lthumb 10.7698 7.03979
rfemur -5.19617 -4.90706 -1.6616
rtibia 49.0778
rfoot -14.8747 2.18128
rtoes 2.29023
lfemur 15.7785 8.83127 -31.5856
ltibia 1.31308
lfoot -9.97514 4.79424
ltoes 10.0239
913
root 44.9824 16.9534 -1.21681 944.131 103.337 953.04
lowerback 6.84055 2.6756 -13.7962
upperback 0.256677 2.48518 -2.79284
thorax -4.043 1.50785 4.49522
lowerneck -12.5582 13.7019 16.2625
upperneck 18.6872 17.3956 -7.32678
head 10.0915 8.62006 -2.65149
rclavicle 1.79155e-014 5.36719e-014
rhumerus -43.9302 0.866167 -84.1139
rradius 34.9022
rwrist 0.0679033
rhand -7.71056 -32.9648
rfingers 7.12502
rthumb 18.1873 -62.1345
lclavicle 1.79155e-014 5.36719e-014
lhumerus -28.3333 -20.9767 90.7604
lradius 40.0019
lwrist 0.862323
lhand -15.336 -22.6896
lfingers 7.12502
lthumb 10.8407 7.01063
rfemur -5.4412 -4.69435 -1.02033
rtibia 48.1663
rfoot -15.3588 1.46133
rtoes 3.41431
lfemur 15.8253 8.58499 -31.0356
ltibia 1.40726
lfoot -10.2254 5.11412
ltoes 10.7901
914
root 45.0029 16.9513 -1.20767 942.503 103.064 951.425
lowerback 7.17621 2.72196 -13.3987
upperback 0.096581 2.50104 -2.65827
thorax -4.39698 1.53211 4.40021
lowerneck -12.4954 13.7206 16.4166
upperneck 18.8096 17.4518 -7.46362
head 10.1599 8.64696 -2.70927
rclavicle -3.14825e-014 2.20651e-014
rhumerus -44.2484 0.854977 -84.1876
rradius 35.0824
rwrist 0.0716655
rhand -7.64026 -33.0202
rfingers 7.12502
rthumb 18.255 -62.1836
lclavicle -3.14825e-014 2.20651e-014
lhumerus -28.7629 -21.1777 91.2237
lradius 39.9123
lwrist 0.740272
lhand -15.6333 -22.7217
lfingers 7.12502
lthumb 10.5539 6.99333
rfemur -5.51398 -4.60888 -0.378669
rtibia 47.122
rfoot -16.0749 0.900378
rtoes 1.12632
lfemur 15.9466 8.41314 -30.4644
ltibia 1.47526
lfoot -10.5873 5.39463
ltoes 12.0027
915
root 45.0389 16.9532 -1.20223 941.438 102.813 950.319
lowerback 6.98855 2.67662 -13.026
upperback 0.155689 2.5074 -2.58041
thorax -4.21534 1.51455 4.28814
lowerneck -12.4586 13.7525 16.5345
upperneck 18.7132 17.4981 -7.5922
head 10.1492 8.6633 -2.7641
rclavicle -8.89561e-015 2.38542e-014
rhumerus -44.1976 0.899056 -84.3503
rradius 35.1639
rwrist -0.177454
rhand -7.703 -33.0364
rfingers 7.12502
rthumb 18.1946 -62.2055
lclavicle -8.89561e-015 2.38542e-014
lhumerus -28.8942 -21.4482 91.5511
lradius 39.8158
lwrist 0.823826
lhand -15.6643 -22.7041
lfingers 7.12502
lthumb 10.524 7.01242
rfemur -5.37687 -4.63203 0.024061
rtibia 45.7161
rfoot -16.8947 0.901455
rtoes -1.59116
lfemur 16.1386 8.37351 -30.0429
ltibia 1.36774
lfoot -10.78 5.35983
ltoes 12.5642
916
root 45.0754 16.9553 -1.2002 943.243 102.958 952.097
lowerback 6.86136 2.59973 -13.3919
upperback 0.140696 2.39763 -2.69347
thorax -4.15095 1.46604 4.38651
lowerneck -12.4332 13.7077 16.4143
upperneck 18.6855 17.4364 -7.48689
head 10.1044 8.6386 -2.72623
rclavicle -2.68359e-014 -6.75868e-015
rhumerus -44.1647 0.893127 -84.4649
rradius 35.0882
rwrist -0.258289
rhand -7.80767 -32.8278
rfingers 7.12502
rthumb 18.0939 -62.0062
lclavicle -2.68359e-014 -6.75868e-015
lhumerus -29.2505 -21.705 91.935
lradius 39.8509
lwrist 0.894442
lhand -15.7604 -22.7136
lfingers 7.12502
lthumb 10.4313 7.00763
rfemur -5.25312 -4.83866 -0.583543
rtibia 44.483
rfoot -17.6018 1.18633
rtoes -0.301056
lfemur 16.2039 8.40937 -30.5447
ltibia 1.33948
lfoot -10.8041 5.17636
ltoes 12.5397
917
root 45.1035 16.9583 -1.19134 943.552 102.943 952.28
lowerback 6.6926 2.55488 -13.4824
upperback 0.106764 2.35656 -2.6752
thorax -4.08932 1.44552 4.4659
lowerneck -12.4537 13.68 16.2457
upperneck 18.6698 17.4073 -7.40234
head 10.0736 8.62207 -2.67982
rclavicle -1.30949e-014 -2.46493e-014
rhumerus -44.1239 0.820702 -84.4796
rradius 35.0672
rwrist -0.0651829
rhand -7.63831 -32.7032
rfingers 7.12502
rthumb 18.2568 -61.8664
lclavicle -1.30949e-014 -2.46493e-014
lhumerus -29.6112 -21.7789 92.3119
lradius 39.9272
lwrist 0.723389
lhand -15.6931 -22.703
lfingers 7.12502
lthumb 10.4962 7.0149
rfemur -5.421 -4.87448 -0.583376
rtibia 43.3692
rfoot -18.1974 0.594208
rtoes -2.91232
lfemur 16.163 8.31913 -30.5767
ltibia 1.36832
lfoot -10.8612 5.2336
ltoes 12.5132
